<svg xmlns="http://www.w3.org/2000/svg" viewBox="0 0 64 64">
  <defs>
    <linearGradient id="murmura-favicon-gradient" x1="0%" y1="0%" x2="100%" y2="100%">
      <stop offset="0%" stop-color="#7C3AED" />
      <stop offset="100%" stop-color="#3730A3" />
    </linearGradient>
  </defs>
  <rect width="64" height="64" rx="18" fill="url(#murmura-favicon-gradient)" />
  <path d="M13 10h38a8 8 0 0 1 8 8v22a8 8 0 0 1-8 8H25L11 58l7-10h-5a8 8 0 0 1-8-8V18a8 8 0 0 1 8-8Z" fill="rgba(255,255,255,0.16)" />
  <path d="M16 25c6-4 11-4 16 0s12 4 17 0" fill="none" stroke="#fff" stroke-linecap="round" stroke-width="3" opacity=".4" />
  <path d="M16 32c6-4 11-4 16 0s12 4 17 0" fill="none" stroke="#fff" stroke-linecap="round" stroke-width="3" opacity=".7" />
  <path d="M16 39c6-4 11-4 16 0s12 4 17 0" fill="none" stroke="#fff" stroke-linecap="round" stroke-width="3" />
</svg>
