<svg xmlns="http://www.w3.org/2000/svg" viewBox="0 0 512 512">
  <defs>
    <linearGradient id="murmura-icon-512-gradient" x1="0%" y1="0%" x2="100%" y2="100%">
      <stop offset="0%" stop-color="#7C3AED" />
      <stop offset="100%" stop-color="#3730A3" />
    </linearGradient>
  </defs>
  <rect width="512" height="512" rx="128" fill="url(#murmura-icon-512-gradient)" />
  <path d="M112 82h288c44.183 0 80 35.817 80 80v150c0 44.183-35.817 80-80 80H224l-76 76 32-76h-68c-44.183 0-80-35.817-80-80V162c0-44.183 35.817-80 80-80Z" fill="rgba(255,255,255,0.16)" />
  <path d="M114 198c45-32 83-32 122 0s93 32 162 0" fill="none" stroke="#fff" stroke-linecap="round" stroke-width="22" opacity=".4" />
  <path d="M114 256c45-32 83-32 122 0s93 32 162 0" fill="none" stroke="#fff" stroke-linecap="round" stroke-width="22" opacity=".7" />
  <path d="M114 314c45-32 83-32 122 0s93 32 162 0" fill="none" stroke="#fff" stroke-linecap="round" stroke-width="22" />
</svg>
